<svg id="Flat_Gradient" height="512" viewBox="0 0 48 48" width="512" xmlns="http://www.w3.org/2000/svg" xmlns:xlink="http://www.w3.org/1999/xlink"><linearGradient id="SVGID_1_" gradientUnits="userSpaceOnUse" x1="24" x2="24" y1="1.318" y2="46.045"><stop offset="0" stop-color="#e8f5ff"/><stop offset="1" stop-color="#b4dfff"/></linearGradient><linearGradient id="SVGID_2_" gradientUnits="userSpaceOnUse" x1="24" x2="24" y1="8.404" y2="39.06"><stop offset="0" stop-color="#466aff"/><stop offset="1" stop-color="#06b8ff"/></linearGradient><path d="m46.40625 10.6958c-.2793-4.92236-4.20166-8.84473-9.12402-9.12402-8.81348-.5-17.75146-.5-26.56396 0-4.92237.27929-8.84473 4.20166-9.12452 9.12402-.5 8.81348-.5 17.75098 0 26.56445.27979 4.92236 4.20215 8.84473 9.12451 9.12402 8.8353.50132 17.72903.50122 26.56396 0 4.92236-.2793 8.84473-4.20166 9.12402-9.12402.50001-8.81347.50001-17.75097.00001-26.56445z" fill="url(#SVGID_1_)"/><g fill="url(#SVGID_2_)"><path d="m21.53516 12.25h4.92969c.08398 0 .16162-.04199.20801-.11133l1.92571-2.88867h-9.19745l1.92603 2.88867c.04639.06934.12402.11133.20801.11133z"/><path d="m31 9.25h-.59875l-2.48035 3.7207c-.3252.48828-.86963.7793-1.45605.7793h-4.92969c-.58643 0-1.13086-.29102-1.45605-.7793l-2.48078-3.7207h-.59833c-1.5166 0-2.75 1.2334-2.75 2.75v24c0 1.5166 1.2334 2.75 2.75 2.75h14c1.5166 0 2.75-1.2334 2.75-2.75v-24c0-1.5166-1.2334-2.75-2.75-2.75zm-7 25.5c-.41418 0-.75-.33582-.75-.75 0-.41425.33582-.75.75-.75.41425 0 .75.33575.75.75 0 .41418-.33575.75-.75.75zm1.93359-6.91796c-.29379.28691-.77431.27874-1.06103-.01368-.45508-.46875-1.29004-.46875-1.74512 0-.28955.2959-.76367.30469-1.06104.01367-.29639-.28906-.30273-.76367-.01416-1.06055 1.02637-1.05273 2.86914-1.05273 3.89551 0 .28858.29688.28223.77149-.01416 1.06056zm2.13965-2.13966c-.2859.2883-.77236.29115-1.06055.00586-.81055-.80176-1.88037-1.24316-3.0127-1.24316s-2.20215.44141-3.0127 1.24316c-.29395.29102-.76953.28906-1.06055-.00586-.2915-.29395-.28857-.76953.00586-1.06055 1.09277-1.08105 2.5376-1.67676 4.06738-1.67676s2.97461.5957 4.06738 1.67676c.29445.29102.29739.76659.00588 1.06055zm2.10693-2.10742c-.28933.28933-.77222.28832-1.06054 0-1.37402-1.37305-3.19238-2.12988-5.11963-2.12988s-3.74561.75684-5.11963 2.12988c-.29297.29297-.76758.29297-1.06055 0s-.29297-.76758 0-1.06055c1.65723-1.65723 3.85205-2.56934 6.18018-2.56934s4.52295.91211 6.18018 2.56934c.29296.29297.29296.76758-.00001 1.06055z"/></g></svg>