<?xml version="1.0"?>
<svg xmlns="http://www.w3.org/2000/svg" xmlns:xlink="http://www.w3.org/1999/xlink" xmlns:svgjs="http://svgjs.com/svgjs" version="1.1" width="512" height="512" x="0" y="0" viewBox="0 0 48 48" style="enable-background:new 0 0 512 512" xml:space="preserve" class=""><g><linearGradient id="SVGID_1_" gradientUnits="userSpaceOnUse" x1="24" x2="24" y1="1.659" y2="47.127"><stop stop-opacity="1" stop-color="#e8f5ff" offset="0"/><stop stop-opacity="1" stop-color="#b4dfff" offset="1"/></linearGradient><linearGradient id="lg1"><stop stop-opacity="1" stop-color="#466aff" offset="0"/><stop stop-opacity="1" stop-color="#06b8ff" offset="1"/></linearGradient><linearGradient id="SVGID_2_" gradientUnits="userSpaceOnUse" x1="22" x2="22" xlink:href="#lg1" y1="8.149" y2="39.694"/><linearGradient id="SVGID_4_" gradientUnits="userSpaceOnUse" x1="28.5" x2="28.5" xlink:href="#lg1" y1="8.149" y2="39.694"/><path d="m46.40625 10.6958c-.2793-4.92236-4.20166-8.84473-9.12402-9.12402-8.81348-.5-17.75146-.5-26.56396 0-4.92237.27929-8.84473 4.20165-9.12452 9.12402-.5 8.81348-.5 17.75098 0 26.56446.27979 4.92236 4.20215 8.84472 9.12451 9.12402 8.83567.50134 17.72892.50122 26.56396 0 4.92236-.2793 8.84473-4.20166 9.12402-9.12402.50001-8.81349.50001-17.75099.00001-26.56446z" fill="url(#SVGID_1_)" data-original="url(#SVGID_1_)"/><g><g fill="url(#SVGID_2_)"><path d="m19.53516 12.25h4.92969c.08398 0 .16162-.04199.20801-.11133l1.92577-2.88867h-9.19739l1.9259 2.88867c.0464.06934.12403.11133.20802.11133z" fill=""/><path d="m24 15.75h7.75v-3.75c0-1.52002-1.22998-2.75-2.75-2.75h-.59998l-2.47998 3.71997c-.32.48999-.87005.78003-1.46002.78003h-4.91998c-.59003 0-1.14001-.29004-1.46002-.78003l-2.47998-3.71997h-.60004c-1.51996 0-2.75 1.22998-2.75 2.75v24c0 1.51996 1.23004 2.75 2.75 2.75h14c1.52002 0 2.75-1.23004 2.75-2.75v-5.75h-5s-1.79781 1.34834-1.79999 1.34997c-.94507.70879-2.36318.83517-3.40998.29999-1.10003-.54998-1.79003-1.66998-1.79003-2.89996v-9c0-2.34003 1.91003-4.25 4.25-4.25zm-2 18.5c.41003 0 .75.33997.75.75 0 .40997-.33997.75-.75.75-.40997 0-.75-.34003-.75-.75 0-.41003.34003-.75.75-.75z" fill=""/></g><path d="m33 17.25h-9c-1.5166 0-2.75 1.2334-2.75 2.75v9c0 .66307.36912 1.26169.96333 1.56052.56302.28315 1.31817.22432 1.83696-.16111l2.19971-1.64941h6.75c1.5166 0 2.75-1.2334 2.75-2.75v-6c0-1.5166-1.2334-2.75-2.75-2.75zm-1 6.5h-7c-.41406 0-.75-.33594-.75-.75s.33594-.75.75-.75h7c.41406 0 .75.33594.75.75s-.33594.75-.75.75z" fill="url(#SVGID_4_)" data-original="url(#SVGID_4_)"/></g></g></svg>
