<?xml version="1.0"?>
<svg xmlns="http://www.w3.org/2000/svg" xmlns:xlink="http://www.w3.org/1999/xlink" xmlns:svgjs="http://svgjs.com/svgjs" version="1.1" width="512" height="512" x="0" y="0" viewBox="0 0 48 48" style="enable-background:new 0 0 512 512" xml:space="preserve" class=""><g><linearGradient id="SVGID_1_" gradientUnits="userSpaceOnUse" x1="24" x2="24" y1="1" y2="46.309"><stop stop-opacity="1" stop-color="#e8f5ff" offset="0"/><stop stop-opacity="1" stop-color="#b4dfff" offset="1"/></linearGradient><linearGradient id="lg1"><stop stop-opacity="1" stop-color="#466aff" offset="0"/><stop stop-opacity="1" stop-color="#06b8ff" offset="1"/></linearGradient><linearGradient id="SVGID_2_" gradientUnits="userSpaceOnUse" x1="23.999" x2="23.999" xlink:href="#lg1" y1="8.319" y2="38.975"/><linearGradient id="SVGID_3_" gradientUnits="userSpaceOnUse" x1="23.994" x2="23.994" xlink:href="#lg1" y1="8.319" y2="38.975"/><linearGradient id="SVGID_4_" gradientUnits="userSpaceOnUse" x1="23.996" x2="23.996" xlink:href="#lg1" y1="8.319" y2="38.975"/><linearGradient id="SVGID_6_" gradientUnits="userSpaceOnUse" x1="28" x2="28" xlink:href="#lg1" y1="8.319" y2="38.975"/><linearGradient id="SVGID_7_" gradientUnits="userSpaceOnUse" x1="20" x2="20" xlink:href="#lg1" y1="8.319" y2="38.975"/><g id="Layer_3"><path d="m46.4062 10.7173c-.2793-4.9224-4.2017-8.8447-9.124-9.124-8.8135-.5-17.7515-.5-26.564 0-4.9224.2793-8.8447 4.2017-9.1245 9.124-.5 8.8135-.5 17.751 0 26.5645.2798 4.9224 4.2021 8.8447 9.1245 9.124 8.8359.5014 17.7286.5012 26.564 0 4.9224-.2793 8.8447-4.2017 9.124-9.124.5-8.8135.5-17.751 0-26.5645z" fill="url(#SVGID_1_)" data-original="url(#SVGID_1_)"/><g><g><g><circle cx="23.999" cy="16" fill="url(#SVGID_2_)" r=".75" data-original="url(#SVGID_2_)"/></g><g><path d="m28.4185 12.3296c-.168 0-.3369-.0562-.4766-.1714-1.1011-.9082-2.501-1.4082-3.9429-1.4082s-2.8418.5-3.9429 1.4082c-.3193.2632-.792.2178-1.0557-.1016s-.2183-.792.1016-1.0557c1.3687-1.1288 3.108-1.7509 4.897-1.7509s3.5282.622 4.8969 1.7509c.5287.436.2087 1.3287-.4774 1.3287z" fill="url(#SVGID_3_)" data-original="url(#SVGID_3_)"/></g><g><path d="m26.1191 14.6299c-.1919 0-.3838-.0732-.5303-.2197-.8516-.8516-2.3281-.8516-3.1797 0-.293.293-.7676.293-1.0605 0s-.293-.7676 0-1.0605c1.4179-1.4179 3.8827-1.418 5.3007-.0001.4617.4616.1221 1.2803-.5302 1.2803z" fill="url(#SVGID_4_)" data-original="url(#SVGID_4_)"/></g></g><path d="m37.99 32.98-2.17-9.42c-.72-3.13-3.42-5.31-6.57-5.31h-10.5c-3.15 0-5.85 2.18-6.57 5.31l-2.17 9.42c-.52 2.18.63 4.5 2.67 5.39 2.3194 1.012 5.0906-.1456 6.06-2.5l.28-.73c-.31-.08-.61-.19-.9-.33-1.43-.68-2.37-2.18-2.37-3.81 0-2.34 1.91-4.25 4.25-4.25 1.84 0 3.42 1.18 4 2.83.58-1.65 2.16-2.83 4-2.83 2.34 0 4.25 1.91 4.25 4.25 0 1.63-.91 3.09-2.39 3.82-.28.14-.5699.25-.8799.32 0 0 .2799.7297.28.73.8967 2.338 3.78 3.4949 6.06 2.5 2.0599-.9 3.1799-3.17 2.6699-5.39zm-16.99-9.23h-1.25v1.25c0 .41-.34.75-.75.75-.42 0-.75-.34-.75-.75v-1.25h-1.25c-.42 0-.75-.34-.75-.75s.33-.75.75-.75h1.25v-1.25c0-.41.33-.75.75-.75.41 0 .75.34.75.75v1.25h1.25c.41 0 .75.34.75.75s-.34.75-.75.75zm6 0c-.42 0-.75-.34-.75-.75s.33-.75.75-.75c.41 0 .75.34.75.75s-.34.75-.75.75zm2 2c-.42 0-.75-.34-.75-.75s.33-.75.75-.75c.41 0 .75.34.75.75s-.34.75-.75.75zm0-4c-.42 0-.75-.34-.75-.75s.33-.75.75-.75c.41 0 .75.34.75.75s-.34.75-.75.75zm2 2c-.42 0-.75-.34-.75-.75s.33-.75.75-.75c.41 0 .75.34.75.75s-.34.75-.75.75z" fill="url(#SVGID_2_)" data-original="url(#SVGID_2_)"/><g><path d="m28 28.25c-1.5166 0-2.75 1.2334-2.75 2.75s1.2334 2.75 2.75 2.75c.4238 0 .8408-.0967 1.2017-.2773.955-.4707 1.5483-1.418 1.5483-2.4727 0-1.5166-1.2334-2.75-2.75-2.75z" fill="url(#SVGID_6_)" data-original="url(#SVGID_6_)"/><path d="m20 28.25c-1.5166 0-2.75 1.2334-2.75 2.75 0 1.0532.6108 2.0254 1.5439 2.4702.3707.1856.7764.2798 1.2061.2798 1.5166 0 2.75-1.2334 2.75-2.75s-1.2334-2.75-2.75-2.75z" fill="url(#SVGID_7_)" data-original="url(#SVGID_7_)"/></g></g></g></g></svg>
