<svg height="512" viewBox="0 0 48 48" width="512" xmlns="http://www.w3.org/2000/svg" xmlns:xlink="http://www.w3.org/1999/xlink"><linearGradient id="linear-gradient" gradientUnits="userSpaceOnUse" x1="24" x2="24" y1="1.218" y2="46.782"><stop offset="0" stop-color="#e8f5ff"/><stop offset="1" stop-color="#b4dfff"/></linearGradient><linearGradient id="linear-gradient-2" gradientUnits="userSpaceOnUse" x1="24" x2="24" y1="8.319" y2="38.698"><stop offset="0" stop-color="#466aff"/><stop offset="1" stop-color="#06b8ff"/></linearGradient><linearGradient id="linear-gradient-5" x1="11.5" x2="11.5" xlink:href="#linear-gradient-2" y1="8.319" y2="38.698"/><linearGradient id="linear-gradient-6" x1="36.5" x2="36.5" xlink:href="#linear-gradient-2" y1="8.319" y2="38.698"/><linearGradient id="linear-gradient-7" gradientTransform="matrix(.707 .707 -.707 .707 20.339 -18.78)" x1="32.839" x2="32.839" xlink:href="#linear-gradient-2" y1="8.319" y2="38.698"/><linearGradient id="linear-gradient-8" gradientTransform="matrix(.707 .707 -.707 .707 15.161 -6.28)" x1="15.161" x2="15.161" xlink:href="#linear-gradient-2" y1="8.319" y2="38.698"/><g id="Layer_2" data-name="Layer 2"><path d="m46.4062 10.7174a9.6831 9.6831 0 0 0 -9.124-9.1241 235.4011 235.4011 0 0 0 -26.5639 0 9.684 9.684 0 0 0 -9.1245 9.1241 235.41 235.41 0 0 0 0 26.5644 9.6839 9.6839 0 0 0 9.1245 9.124 234.8618 234.8618 0 0 0 26.5639 0 9.683 9.683 0 0 0 9.124-9.124 235.41 235.41 0 0 0 0-26.5644z" fill="url(#linear-gradient)"/></g><g id="Layer_3" data-name="Layer 3"><g fill="url(#linear-gradient-2)"><path d="m19.25 36.75h4v1.25h1.5v-1.25h4v-3h-9.5z"/><path d="m24 14.25a8.7447 8.7447 0 0 0 -4.75 16.09v1.91h9.5v-1.91a8.7447 8.7447 0 0 0 -4.75-16.09z"/><path d="m23.25 10h1.5v3h-1.5z"/></g><path d="m10 23.25h3v1.5h-3z" fill="url(#linear-gradient-5)"/><path d="m35 23.25h3v1.5h-3z" fill="url(#linear-gradient-6)"/><path d="m31.339 14.411h3v1.5h-3z" fill="url(#linear-gradient-7)" transform="matrix(.707 -.707 .707 .707 -1.102 27.661)"/><path d="m14.411 13.661h1.5v3h-1.5z" fill="url(#linear-gradient-8)" transform="matrix(.707 -.707 .707 .707 -6.28 15.161)"/></g></svg>