<?xml version="1.0"?>
<svg xmlns="http://www.w3.org/2000/svg" xmlns:xlink="http://www.w3.org/1999/xlink" xmlns:svgjs="http://svgjs.com/svgjs" version="1.1" width="512" height="512" x="0" y="0" viewBox="0 0 48 48" style="enable-background:new 0 0 512 512" xml:space="preserve"><g><linearGradient id="linear-gradient" gradientUnits="userSpaceOnUse" x1="24" x2="24" y1="1.34" y2="46.04"><stop stop-opacity="1" stop-color="#e8f5ff" offset="0"/><stop stop-opacity="1" stop-color="#b4dfff" offset="1"/></linearGradient><linearGradient id="linear-gradient-2" gradientUnits="userSpaceOnUse" x1="24" x2="24" y1="9.426" y2="37.931"><stop stop-opacity="1" stop-color="#466aff" offset="0"/><stop stop-opacity="1" stop-color="#06b8ff" offset="1"/></linearGradient><linearGradient id="linear-gradient-3" x1="32" x2="32" xlink:href="#linear-gradient-2" y1="9.426" y2="37.931"/><linearGradient id="linear-gradient-4" x1="16" x2="16" xlink:href="#linear-gradient-2" y1="9.426" y2="37.931"/><linearGradient id="linear-gradient-5" x1="23.999" x2="23.999" xlink:href="#linear-gradient-2" y1="9.426" y2="37.931"/><g id="Layer_2" data-name="Layer 2"><path d="m46.4062 10.7173a9.683 9.683 0 0 0 -9.124-9.124 235.4011 235.4011 0 0 0 -26.5639 0 9.6839 9.6839 0 0 0 -9.1245 9.124 235.4117 235.4117 0 0 0 0 26.5645 9.684 9.684 0 0 0 9.1245 9.124 234.815 234.815 0 0 0 26.5639 0 9.6831 9.6831 0 0 0 9.124-9.124 235.4117 235.4117 0 0 0 0-26.5645z" fill="url(#linear-gradient)" data-original="url(#linear-gradient)"/></g><g id="Layer_3" data-name="Layer 3"><path d="m24.3354 32.3291a.75.75 0 0 0 -.6708 0 4.4326 4.4326 0 0 0 -2.4146 3.6709 2.75 2.75 0 0 0 5.5 0 4.4326 4.4326 0 0 0 -2.4146-3.6709z" fill="url(#linear-gradient-2)" data-original="url(#linear-gradient-2)"/><path d="m32.3354 32.3291a.75.75 0 0 0 -.6708 0 4.4326 4.4326 0 0 0 -2.4146 3.6709 2.75 2.75 0 0 0 5.5 0 4.4326 4.4326 0 0 0 -2.4146-3.6709z" fill="url(#linear-gradient-3)" data-original="url(#linear-gradient-3)"/><path d="m16.3354 32.3291a.75.75 0 0 0 -.6708 0 4.4326 4.4326 0 0 0 -2.4146 3.6709 2.75 2.75 0 0 0 5.5 0 4.4326 4.4326 0 0 0 -2.4146-3.6709z" fill="url(#linear-gradient-4)" data-original="url(#linear-gradient-4)"/><path d="m35.4507 20.36a5.73 5.73 0 0 0 -3.7007-2.0612v-1.2988a7.7492 7.7492 0 0 0 -8.7046-7.6929 7.8871 7.8871 0 0 0 -6.7954 7.9546v1.0366a5.7405 5.7405 0 0 0 -4.918 6.6841 6.1391 6.1391 0 0 0 5.8609 4.7676h13.6171a5.86 5.86 0 0 0 5.8213-4.5645 5.78 5.78 0 0 0 -1.1806-4.8255z" fill="url(#linear-gradient-5)" data-original="url(#linear-gradient-5)"/></g></g></svg>
