<?xml version="1.0"?>
<svg xmlns="http://www.w3.org/2000/svg" xmlns:xlink="http://www.w3.org/1999/xlink" xmlns:svgjs="http://svgjs.com/svgjs" version="1.1" width="512" height="512" x="0" y="0" viewBox="0 0 48 48" style="enable-background:new 0 0 512 512" xml:space="preserve"><g><linearGradient id="linear-gradient" gradientUnits="userSpaceOnUse" x1="24" x2="24" y1="1.17" y2="46"><stop stop-opacity="1" stop-color="#e8f5ff" offset="0"/><stop stop-opacity="1" stop-color="#b4dfff" offset="1"/></linearGradient><linearGradient id="linear-gradient-2" gradientUnits="userSpaceOnUse" x1="24" x2="24" y1="10.021" y2="37.119"><stop stop-opacity="1" stop-color="#466aff" offset="0"/><stop stop-opacity="1" stop-color="#06b8ff" offset="1"/></linearGradient><linearGradient id="linear-gradient-4" x1="30" x2="30" xlink:href="#linear-gradient-2" y1="10.021" y2="37.119"/><linearGradient id="linear-gradient-5" x1="18" x2="18" xlink:href="#linear-gradient-2" y1="10.021" y2="37.119"/><g id="Layer_2" data-name="Layer 2"><path d="m46.4062 10.7172a9.683 9.683 0 0 0 -9.124-9.124 235.4011 235.4011 0 0 0 -26.5639 0 9.6839 9.6839 0 0 0 -9.1245 9.124 235.4117 235.4117 0 0 0 0 26.5645 9.684 9.684 0 0 0 9.1245 9.124 234.7215 234.7215 0 0 0 26.5639 0 9.6831 9.6831 0 0 0 9.124-9.124 235.4117 235.4117 0 0 0 0-26.5645z" fill="url(#linear-gradient)" data-original="url(#linear-gradient)"/></g><g id="Layer_3" data-name="Layer 3"><path d="m29.75 14.25v-4h-11.5v4h-9v11.5h6.5v-4.25h4.5v4.25h7.5v-4.25h4.5v4.25h6.5v-11.5zm-10-2.5h8.5v2.5h-8.5z" fill="url(#linear-gradient-2)" data-original="url(#linear-gradient-2)"/><path d="m32.25 30.5h-4.5v-3.25h-7.5v3.25h-4.5v-3.25h-4.5v10.5h25.5v-10.5h-4.5z" fill="url(#linear-gradient-2)" data-original="url(#linear-gradient-2)"/><path d="m29.25 23h1.5v6h-1.5z" fill="url(#linear-gradient-4)" data-original="url(#linear-gradient-4)"/><path d="m17.25 23h1.5v6h-1.5z" fill="url(#linear-gradient-5)" data-original="url(#linear-gradient-5)"/></g></g></svg>
