<?xml version="1.0"?>
<svg xmlns="http://www.w3.org/2000/svg" xmlns:xlink="http://www.w3.org/1999/xlink" xmlns:svgjs="http://svgjs.com/svgjs" version="1.1" width="512" height="512" x="0" y="0" viewBox="0 0 48 48" style="enable-background:new 0 0 512 512" xml:space="preserve"><g><linearGradient id="linear-gradient" gradientUnits="userSpaceOnUse" x1="24" x2="24" y1="1.17" y2="46"><stop stop-opacity="1" stop-color="#e8f5ff" offset="0"/><stop stop-opacity="1" stop-color="#b4dfff" offset="1"/></linearGradient><linearGradient id="linear-gradient-2" gradientUnits="userSpaceOnUse" x1="24" x2="24" y1="10.532" y2="36.595"><stop stop-opacity="1" stop-color="#466aff" offset="0"/><stop stop-opacity="1" stop-color="#06b8ff" offset="1"/></linearGradient><linearGradient id="linear-gradient-3" x1="24" x2="24" xlink:href="#linear-gradient-2" y1="10.532" y2="36.595"/><g id="Layer_2" data-name="Layer 2"><path d="m46.4062 10.7172a9.683 9.683 0 0 0 -9.124-9.124 235.4011 235.4011 0 0 0 -26.5639 0 9.6839 9.6839 0 0 0 -9.1245 9.124 235.4117 235.4117 0 0 0 0 26.5645 9.684 9.684 0 0 0 9.1245 9.124 234.7215 234.7215 0 0 0 26.5639 0 9.6831 9.6831 0 0 0 9.124-9.124 235.4117 235.4117 0 0 0 0-26.5645z" fill="url(#linear-gradient)" data-original="url(#linear-gradient)"/></g><g id="Layer_3" data-name="Layer 3"><path d="m35 11.25h-22a3.7547 3.7547 0 0 0 -3.75 3.75v14a3.7547 3.7547 0 0 0 3.75 3.75h22a3.7547 3.7547 0 0 0 3.75-3.75v-14a3.7547 3.7547 0 0 0 -3.75-3.75zm-6.7344 12.5322-6.0312 3.6192a2.436 2.436 0 0 1 -2.4483.03 2.4034 2.4034 0 0 1 -1.2324-2.1142v-6.6346a2.43 2.43 0 0 1 3.5163-2.1738l6.0322 3.0156a2.43 2.43 0 0 1 .1631 4.2578z" fill="url(#linear-gradient-2)" data-original="url(#linear-gradient-2)"/><path d="m27.4326 20.8662-6.0326-3.0156a.9378.9378 0 0 0 -.9053.041.9113.9113 0 0 0 -.4414.791v6.6348a.93.93 0 0 0 1.4092.7969l6.0312-3.6192a.93.93 0 0 0 -.0615-1.6289z" fill="url(#linear-gradient-3)" data-original="url(#linear-gradient-3)"/><path d="m36 36.75h-24a.75.75 0 0 1 0-1.5h24a.75.75 0 0 1 0 1.5z" fill="url(#linear-gradient-2)" data-original="url(#linear-gradient-2)"/></g></g></svg>
