<?xml version="1.0"?>
<svg xmlns="http://www.w3.org/2000/svg" xmlns:xlink="http://www.w3.org/1999/xlink" xmlns:svgjs="http://svgjs.com/svgjs" version="1.1" width="512" height="512" x="0" y="0" viewBox="0 0 48 48" style="enable-background:new 0 0 512 512" xml:space="preserve" class=""><g><linearGradient id="linear-gradient" gradientUnits="userSpaceOnUse" x1="24" x2="24" y1="1.68" y2="47.149"><stop stop-opacity="1" stop-color="#e8f5ff" offset="0"/><stop stop-opacity="1" stop-color="#b4dfff" offset="1"/></linearGradient><linearGradient id="linear-gradient-2" gradientUnits="userSpaceOnUse" x1="24" x2="24" y1="9.34" y2="37.774"><stop stop-opacity="1" stop-color="#466aff" offset="0"/><stop stop-opacity="1" stop-color="#06b8ff" offset="1"/></linearGradient><g id="Layer_2" data-name="Layer 2"><path d="m46.4062 10.7173a9.683 9.683 0 0 0 -9.124-9.124 235.4011 235.4011 0 0 0 -26.5639 0 9.6839 9.6839 0 0 0 -9.1245 9.124 235.41 235.41 0 0 0 0 26.5644 9.684 9.684 0 0 0 9.1245 9.1241 234.815 234.815 0 0 0 26.5639 0 9.6831 9.6831 0 0 0 9.124-9.1241 235.41 235.41 0 0 0 0-26.5644z" fill="url(#linear-gradient)" data-original="url(#linear-gradient)" class=""/></g><g id="Layer_3" fill="url(#linear-gradient-2)" data-name="Layer 3"><path d="m37.75 13a2.7528 2.7528 0 0 0 -2.75-2.75h-22a2.7528 2.7528 0 0 0 -2.75 2.75v3.25h27.5z" fill=""/><path d="m13 31.75h8.75v-4.75a2.25 2.25 0 0 1 4.5 0v4.75h8.75a2.7484 2.7484 0 0 0 2.75-2.75v-11.25h-27.5v11.25a2.7484 2.7484 0 0 0 2.75 2.75z" fill=""/><path d="m24 26.25a.75.75 0 0 0 -.75.75v8.19l-1.72-1.72a.75.75 0 0 0 -1.06 1.06l3 3a.7632.7632 0 0 0 1.0606 0l3-3a.75.75 0 0 0 -1.0606-1.06l-1.72 1.72v-8.19a.75.75 0 0 0 -.75-.75z" fill=""/></g></g></svg>
