<?xml version="1.0"?>
<svg xmlns="http://www.w3.org/2000/svg" xmlns:xlink="http://www.w3.org/1999/xlink" xmlns:svgjs="http://svgjs.com/svgjs" version="1.1" width="512" height="512" x="0" y="0" viewBox="0 0 48 48" style="enable-background:new 0 0 512 512" xml:space="preserve"><g><linearGradient id="SVGID_1_" gradientUnits="userSpaceOnUse" x1="24" x2="24" y1=".978" y2="46.971"><stop stop-opacity="1" stop-color="#fffcd9" offset="0"/><stop stop-opacity="1" stop-color="#e8f5ff" offset="0"/><stop stop-opacity="1" stop-color="#b4dfff" offset="1"/></linearGradient><linearGradient id="lg1"><stop stop-opacity="1" stop-color="#466aff" offset="0"/><stop stop-opacity="1" stop-color="#06b8ff" offset="1"/></linearGradient><linearGradient id="SVGID_00000154387418677904935080000017112163553042145441_" gradientUnits="userSpaceOnUse" x1="24" x2="24" xlink:href="#lg1" y1="9.511" y2="38.729"/><linearGradient id="SVGID_00000140703063148295413820000011795371590577259172_" gradientUnits="userSpaceOnUse" x1="17.329" x2="17.329" xlink:href="#lg1" y1="9.511" y2="38.729"/><linearGradient id="SVGID_00000169553439141788438410000008598419987625111228_" gradientUnits="userSpaceOnUse" x1="20.053" x2="20.053" xlink:href="#lg1" y1="9.511" y2="38.729"/><linearGradient id="SVGID_00000098929947110448226980000011544145521086417541_" gradientUnits="userSpaceOnUse" x1="30.671" x2="30.671" xlink:href="#lg1" y1="9.511" y2="38.729"/><linearGradient id="SVGID_00000099627539825175020890000011629242726026906531_" gradientUnits="userSpaceOnUse" x1="27.947" x2="27.947" xlink:href="#lg1" y1="9.511" y2="38.729"/><path d="m46.40625 10.69582c-.2793-4.92236-4.20166-8.84473-9.12402-9.12402-8.81348-.5-17.75146-.5-26.56396 0-4.92236.2793-8.84473 4.20166-9.12451 9.12402-.5 8.81348-.5 17.75098 0 26.56445.27979 4.92236 4.20215 8.84473 9.12451 9.12402 8.83466.50129 17.73002.50116 26.56396 0 4.92236-.2793 8.84473-4.20166 9.12402-9.12402.5-8.81348.5-17.75098 0-26.56445z" fill="url(#SVGID_1_)" data-original="url(#SVGID_1_)"/><g><path d="m35.43561 16.38867c.32587-.46014.50677-1.00531.50677-1.58105 0-.73486-.28613-1.42529-.80566-1.94434-.95892-.95892-2.45184-1.05377-3.52429-.29749-5.38568-3.58167-12.73145-2.89764-17.33215 1.7135-4.61261 4.60223-5.29602 11.94495-1.71588 17.33209-.32587.46014-.50677 1.00525-.50677 1.58099 0 .73486.28613 1.42529.80566 1.94434.53613.53613 1.24023.8042 1.94434.8042.5542 0 1.10504-.17249 1.57733-.50464 2.29639 1.52759 4.94537 2.28784 7.59064 2.28784 3.55957-.00049 7.10449-1.35742 9.74414-4.00342 4.6126-4.60222 5.29601-11.94481 1.71587-17.33202zm-2.77643 16.27149c-4.06586 4.07428-10.53424 4.70807-15.32092 1.60657.14252-.33551.21936-.69861.21936-1.07434 0-.73486-.28613-1.42529-.80566-1.94434-.81464-.81464-2.01575-1.00677-3.01672-.58362-3.1037-4.78802-2.47125-11.25665 1.60559-15.32458 4.06494-4.07483 10.53351-4.70941 15.32098-1.60663-.14258.33551-.21942.69867-.21942 1.0744 0 .73486.28613 1.42529.80566 1.94434.53613.53613 1.24023.8042 1.94434.8042.36572 0 .7301-.07593 1.07233-.22058 3.10369 4.78802 2.4713 11.25664-1.60554 15.32458z" fill="url(#SVGID_00000154387418677904935080000017112163553042145441_)" data-original="url(#SVGID_00000154387418677904935080000017112163553042145441_)"/><path d="m19.25 24c0-.78223.05835-1.53308.15833-2.25h-3.85431c-.1919.71936-.30402 1.47101-.30402 2.25s.11212 1.53064.30402 2.25h3.85431c-.09998-.71692-.15833-1.46777-.15833-2.25z" fill="url(#SVGID_00000140703063148295413820000011795371590577259172_)" data-original="url(#SVGID_00000140703063148295413820000011795371590577259172_)"/><g fill="url(#SVGID_00000154387418677904935080000017112163553042145441_)"><path d="m24 16.75c-1.02856 0-2.13312 1.33777-2.75323 3.5h5.50647c-.62012-2.16223-1.72468-3.5-2.75324-3.5z" fill=""/><path d="m24 31.25c1.02856 0 2.13312-1.33777 2.75323-3.5h-5.50647c.62012 2.16223 1.72468 3.5 2.75324 3.5z" fill=""/><path d="m27.25 24c0-.79901-.06-1.55261-.16748-2.25h-6.16504c-.10748.69739-.16748 1.45099-.16748 2.25s.06 1.55261.16748 2.25h6.16504c.10748-.69739.16748-1.45099.16748-2.25z" fill=""/></g><path d="m19.6983 27.75h-3.59204c1.40778 2.95093 4.41187 5 7.89374 5-1.92938 0-3.55164-2.02252-4.3017-5z" fill="url(#SVGID_00000169553439141788438410000008598419987625111228_)" data-original="url(#SVGID_00000169553439141788438410000008598419987625111228_)"/><path d="m24 15.25c-3.48187 0-6.48596 2.04907-7.89374 5h3.59204c.75006-2.97748 2.37232-5 4.3017-5z" fill="url(#SVGID_00000169553439141788438410000008598419987625111228_)" data-original="url(#SVGID_00000169553439141788438410000008598419987625111228_)"/><path d="m28.59167 21.75c.09998.71692.15833 1.46777.15833 2.25s-.05835 1.53308-.15833 2.25h3.85431c.1919-.71936.30402-1.47101.30402-2.25s-.11212-1.53064-.30402-2.25z" fill="url(#SVGID_00000098929947110448226980000011544145521086417541_)" data-original="url(#SVGID_00000098929947110448226980000011544145521086417541_)"/><path d="m24 32.75c3.48187 0 6.48596-2.04907 7.89374-5h-3.59204c-.75006 2.97748-2.37232 5-4.3017 5z" fill="url(#SVGID_00000099627539825175020890000011629242726026906531_)" data-original="url(#SVGID_00000099627539825175020890000011629242726026906531_)"/><path d="m28.3017 20.25h3.59204c-1.40778-2.95093-4.41187-5-7.89374-5 1.92938 0 3.55164 2.02252 4.3017 5z" fill="url(#SVGID_00000099627539825175020890000011629242726026906531_)" data-original="url(#SVGID_00000099627539825175020890000011629242726026906531_)"/></g></g></svg>
